<svg id="Layer_1" data-name="Layer 1" xmlns="http://www.w3.org/2000/svg" viewBox="0 0 1599.8 977.88"><defs><style>.cls-1{fill:#00357f;}.cls-2{fill:#fefefe;}</style></defs><title>suomi</title><path class="cls-1" d="M710.91,977.79H447q0-173.94,0-347.87c0-6.68,0-6.68-6.55-6.68q-217.43,0-434.85,0c-1.82,0-3.64-.21-5.46-.32V357c2,0,4-.1,6-.1q217.37,0,434.72.1c4.88,0,6.29-1,6.28-6.13Q446.85,175.47,447,.1H710.91c.05,2,.14,4,.14,6q0,172.14,0,344.27c0,7.52-1.15,6.5,6.66,6.5l875.45,0c2.16,0,4.32.07,6.49.1V622.9c-2.15.11-4.3.32-6.45.32q-437.31,0-874.62,0c-7.55,0-7.55,0-7.55,7.72q0,170.41,0,340.84C711.05,973.79,711,975.79,710.91,977.79Z" transform="translate(0)"/><path class="cls-2" d="M1599.68,357c-2.17,0-4.33-.1-6.49-.1l-875.45,0c-7.81,0-6.66,1-6.66-6.5q0-172.14,0-344.27c0-2-.09-4-.14-6q442,0,883.91-.1c3.83,0,5,.46,5,4.74Q1599.58,180.86,1599.68,357Z" transform="translate(0)"/><path class="cls-2" d="M710.91,977.79c.05-2,.14-4,.14-6q0-170.41,0-340.84c0-7.72,0-7.72,7.55-7.72q437.31,0,874.62,0c2.15,0,4.3-.21,6.45-.32q0,175.2.09,350.39c0,3.75-.84,4.59-4.59,4.59Q1153,977.73,710.91,977.79Z" transform="translate(0)"/><path class="cls-2" d="M447,.1q0,175.37.11,350.75c0,5.18-1.4,6.14-6.28,6.13q-217.35-.19-434.72-.1c-2,0-4,.07-6,.1Q.1,180.66,0,4.31C0,.63.85,0,4.38,0Q225.68.17,447,.1Z" transform="translate(0)"/><path class="cls-2" d="M.1,622.9c1.82.11,3.64.32,5.46.32q217.43,0,434.85,0c6.54,0,6.55,0,6.55,6.68q0,173.94,0,347.87-221.3,0-442.6.09c-3.53,0-4.38-.63-4.38-4.31Q.2,798.23.1,622.9Z" transform="translate(0)"/></svg>