<svg id="Layer_1" data-name="Layer 1" xmlns="http://www.w3.org/2000/svg" viewBox="0 0 3578.98 2129.41"><defs><style>.cls-1{fill:red;}.cls-2{fill:#fffefe;}.cls-3{fill:#12145b;}.cls-4{fill:#13135f;}.cls-5{fill:#ff0101;}.cls-6{fill:#ff0202;}.cls-7{fill:#2f316d;}.cls-8{fill:#f22121;}.cls-9{fill:#040516;}.cls-10{fill:#d3d3e1;}.cls-11{fill:#a4a5c1;}.cls-12{fill:#2e2e2e;}.cls-13{fill:#222269;}.cls-14{fill:#4d4f84;}.cls-15{fill:#dfdfe8;}.cls-16{fill:#eeeded;}.cls-17{fill:#2e2e71;}.cls-18{fill:#9d0000;}.cls-19{fill:#ffd0d0;}</style></defs><title>britain</title><path class="cls-1" d="M1937.26-.41h4l.08,2.05c-.14,1.67-.4,3.34-.4,5q0,437.84.43,875.68c0,2.86,6.78,8.21,10.4,8.22q377.64.59,755.27.35,431.15-.06,862.29-.2c.44,3.6,1.25,7.2,1.26,10.8q.09,160.29,0,320.57c0,3.6-.83,7.2-1.27,10.8-1.34-.08-2.69-.22-4-.22q-807.69,0-1615.38.43c-3,0-8.61,6.67-8.62,10.23q-.61,316.1-.35,632.2,0,118.65.43,237.3v2.11c-2.81,2.21-5.6,6.35-8.41,6.36q-143.19.49-286.36,0c-2.81,0-5.61-4.15-8.41-6.36v-2.11c.15-4,.43-8.06.43-12.09q0-427.68-.52-855.37c0-4.24-8.13-12.18-12.47-12.19q-804.14-.83-1608.27-.54c-4.36,0-8.73-.25-13.09-.38q.06-170.51.14-341c4.36-.11,8.73-.31,13.1-.31q805.17,0,1610.35-.46c3.6,0,10.32-6.67,10.33-10.23q.74-408,.43-816c0-20.86-.26-41.72-.4-62.58,0-.68,0-1.36.07-2h4c2.49.68,5,1.93,7.48,1.94q140,.15,279.94,0C1932.28,1.52,1934.77.27,1937.26-.41Z" transform="translate(-0.28 0.41)"/><path class="cls-2" d="M1638.26,1.64c.14,20.86.39,41.72.4,62.58q0,408-.43,816c0,3.56-6.73,10.23-10.33,10.23q-805.17.69-1610.35.46c-4.37,0-8.74.2-13.1.31l-4.16-.66V799.66l2,0q406.07.11,812.13.19c60.52,0,121-.24,181.57-.37l6.33-.48L998,795.83a36.48,36.48,0,0,0-3.22-2.37Q501.22,502.82,7.6,212.28C5.41,211,2.73,210.55.29,209.71V128.9l2.37-1.81c3,1.43,6.13,2.64,9,4.32q563.7,331.07,1127.5,662a47.16,47.16,0,0,0,22.51,6.16c60.24.49,120.48.29,180.72.22,3.15,0,6.29-.8,9.44-1.22-2.63-1.88-5.14-4-7.91-5.61q-360-212.81-720-425.53Q316.06,185.4,8.28,3.26L8.37-.41H398.19l5.91,4.29c2.75,1.88,5.43,3.89,8.27,5.63Q744,213.74,1075.74,417.89q231.67,142.54,463.48,284.86l3.83-.13c.12-3,.35-6,.35-9.06q0-347,0-694h92.91Z" transform="translate(-0.28 0.41)"/><path class="cls-2" d="M3569.37,890.71q-431.14.1-862.29.2-377.64,0-755.27-.35c-3.62,0-10.4-5.36-10.4-8.22q-.72-437.85-.43-875.68c0-1.68.26-3.35.4-5l1.94-2h97l-.21,2c-.14,3.69-.39,7.38-.39,11.07q0,337.25,0,674.49c0,3.82.91,7.63,1.4,11.45,3.21-1.61,6.57-3,9.62-4.86q316-194.75,632-389.59Q2926.1,154,3169.32,3.62l4-4h155.52l.19,3.54c-2.8,1.86-5.54,3.81-8.4,5.57Q2882.83,279,2445,549.36q-199.11,123-398,246.35l-4.32,3.36,5.69.31c73.68.14,147.36.36,221,.24,3.64,0,7.57-2.37,10.89-4.41q354.81-218.48,709.52-437.1Q3277.49,180.77,3565.09,3.27l4.07-1.7q0,107,0,214.06c-2.67,1.38-5.4,2.65-8,4.17q-325.46,191.61-650.87,383.27-164.57,97-328.88,194.38L2580,799l1.79.09q368.23.32,736.47.64,124.59.12,249.17.45l1.72,1.55Q3569.25,846.21,3569.37,890.71Z" transform="translate(-0.28 0.41)"/><path class="cls-2" d="M4.31,1232.25c4.36.13,8.73.38,13.09.38q804.14,0,1608.27.54c4.34,0,12.46,7.95,12.47,12.19q.88,427.7.52,855.37c0,4-.28,8.06-.43,12.09l-2,.53-92.85-.34q-.18-341.87-.42-683.74c0-3.81-.94-7.62-1.45-11.43-3.24,1.64-6.62,3.07-9.7,5q-458,281.91-916,563.86c-69,42.46-138.29,84.43-207.45,126.63l-2.24.06-145.3-.68c0-1.28,0-2.56-.05-3.83,2.74-1.91,5.4-3.94,8.23-5.69q450.85-278.26,901.72-556.53,182.41-112.64,364.57-225.69l4.64-3.61-4.65-.16c-71.68-.15-143.37-.45-215-.2a39.44,39.44,0,0,0-19.59,5.58Q820.09,1618,339.78,1914q-162.4,100-325.1,199.48l-14.39-.53V1906.83l2.05-.09c3-1.44,6.1-2.67,9-4.35q286.52-168.61,573-337.33,208.14-122.65,416.11-245.59l2.92-1.72-3.25-.53c-2.35-.12-4.69-.35-7-.35q-496.35,0-992.71,0V1232Z" transform="translate(-0.28 0.41)"/><path class="cls-3" d="M1539.22,702.75q-231.75-142.43-463.48-284.86Q744,213.79,412.37,9.51c-2.84-1.74-5.52-3.75-8.27-5.63,4.48-.76,8.95-2.17,13.43-2.17q554.15-.16,1108.29-.18c4.52,0,9-1.26,13.54-1.94h4q0,347,0,694c0,3-.23,6-.35,9.06Z" transform="translate(-0.28 0.41)"/><path class="cls-4" d="M.29,1316.88q496.35,0,992.71,0c2.35,0,4.69.23,7,.35l.33,2.25q-208.05,122.8-416.11,245.59-286.41,168.78-573,337.33c-2.85,1.68-6,2.91-8.95,4.35q0-287.67,0-575.34c0-3.49-1.31-7-2-10.48Z" transform="translate(-0.28 0.41)"/><path class="cls-4" d="M.29,209.71c2.44.84,5.12,1.29,7.31,2.57Q501.22,502.8,994.78,793.46a36.48,36.48,0,0,1,3.22,2.37l-2,3.61c-60.52.13-121,.37-181.57.37q-406.07,0-812.13-.19,0-287.68,0-575.39c0-3.49-1.31-7-2-10.48Z" transform="translate(-0.28 0.41)"/><path class="cls-5" d="M3565.09,3.27Q3277.45,180.69,2989.8,358.11q-354.71,218.64-709.52,437.1c-3.32,2-7.25,4.41-10.89,4.41-73.69.12-147.37-.1-221-.24l-1.37-3.67q199-123.19,398-246.35Q2882.78,278.94,3320.68,8.7c2.86-1.76,5.6-3.71,8.39-5.57l3.86-3.54h4c3.85.67,7.69,1.92,11.54,1.93,55.51.13,111,0,166.52.16C3531.72,1.74,3548.41,2.72,3565.09,3.27Z" transform="translate(-0.28 0.41)"/><path class="cls-6" d="M8.27,3.26Q316.08,185.33,623.9,367.41q360,212.8,720,425.53c2.77,1.64,5.28,3.73,7.91,5.61-3.15.42-6.29,1.22-9.44,1.22-60.24.07-120.48.27-180.72-.22a47.16,47.16,0,0,1-22.51-6.16q-563.9-330.75-1127.5-662c-2.86-1.68-6-2.89-9-4.32l-2.37-.21v-4c.71-4.46,2-8.91,2.06-13.39C3.11,73.52,3.66,37.58,4.28,1.64Z" transform="translate(-0.28 0.41)"/><path d="M1543.42,2113l92.85.34,2,1.58c2.8,2.21,5.6,6.35,8.41,6.36q143.17.49,286.36,0c2.81,0,5.6-4.15,8.41-6.36l2-1.58,95-.22c4.08,2.68,8.16,7.7,12.26,7.71q277,.59,554.08.34,283.09,0,566.19,0a78,78,0,0,0,8.7-1l-4.07-5.13a2.84,2.84,0,0,0,0-1.66c13.12-.1,26.24-.27,39.36-.29q174.15-.21,348.32-.39l5.86-.52.18-127.44-.23-83.61c.67-3.86,1.94-7.72,1.94-11.57q.15-281,0-562c0-3.56-1-7.12-1.6-10.68-.06-.68-.12-1.36-.19-2l.22-82c.44-3.6,1.26-7.2,1.27-10.8q.1-160.29,0-320.57c0-3.6-.82-7.2-1.26-10.8q-.13-44.51-.26-89a1.59,1.59,0,0,0,.1-1.87c0-.71.07-1.43.11-2.14.56-3.56,1.61-7.13,1.61-10.69q.12-280.36,0-560.74c0-3.54-1.14-7.09-1.75-10.63q0-107,0-214.06l.09-2c3.36,3.37,9.68,6.74,9.68,10.1q.65,1055.15,0,2110.29c0,3-5.68,8.72-8.71,8.72q-1780.44.57-3560.88.12c-3,0-6.06-3.79-9.09-5.81.58,0,1.16,0,1.75,0l4.54-.49c67.81,0,135.63.67,203.42-.33,15-.22,29.84-6.2,44.76-9.52l6.1,0,145.3.68a2.77,2.77,0,0,0,0,1.66l-4,5.13a48.4,48.4,0,0,0,6.72.91q562.73.06,1125.46-.29C1537.34,2120.76,1540.38,2115.71,1543.42,2113Z" transform="translate(-0.28 0.41)"/><path class="cls-7" d="M1539.36-.41c-4.51.68-9,1.94-13.54,1.94q-554.14.14-1108.29.18c-4.48,0-8.95,1.41-13.43,2.17L398.19-.41Z" transform="translate(-0.28 0.41)"/><path class="cls-7" d="M2040.06,1.57l.21-2h1133.1l-4,4c-4.52-.67-9-1.92-13.57-1.92Q2597.9,1.54,2040.06,1.57Z" transform="translate(-0.28 0.41)"/><path class="cls-8" d="M4.31,1232.25l-4-.23V890.58l4.16.66Q4.38,1061.74,4.31,1232.25Z" transform="translate(-0.28 0.41)"/><path class="cls-7" d="M.29,213.75c.7,3.5,2,7,2,10.48q.12,287.7,0,575.39l-2,0Z" transform="translate(-0.28 0.41)"/><path class="cls-7" d="M.29,1320.92c.7,3.49,2,7,2,10.48q.12,287.67,0,575.34l-2,.09Z" transform="translate(-0.28 0.41)"/><path class="cls-8" d="M1937.26-.41c-2.49.68-5,1.93-7.47,1.94q-140,.15-279.94,0c-2.49,0-5-1.26-7.48-1.94Z" transform="translate(-0.28 0.41)"/><path class="cls-8" d="M3569.25-.41l-.09,2-4.07,1.7c-16.68-.55-33.37-1.53-50.06-1.59-55.51-.2-111,0-166.52-.16-3.85,0-7.69-1.26-11.54-1.93Z" transform="translate(-0.28 0.41)"/><path class="cls-8" d="M4.28,1.64C3.66,37.58,3.11,73.52,2.35,109.45c-.1,4.48-1.35,8.93-2.06,13.39C.29,84.11.22,45.39.46,6.67.48,4.3,3,2,4.33-.41Z" transform="translate(-0.28 0.41)"/><path class="cls-9" d="M2,2123.05c-.58,0-1.16,0-1.74,0v-10.1l14.39.53-8.11,5.83Z" transform="translate(-0.28 0.41)"/><path class="cls-10" d="M4.28,1.64l0-2h4L8.28,3.26Z" transform="translate(-0.28 0.41)"/><path class="cls-10" d="M3332.93-.41l-3.86,3.54-.18-3.54Z" transform="translate(-0.28 0.41)"/><path class="cls-10" d="M1943.32-.41l-1.94,2.05-.08-2Z" transform="translate(-0.28 0.41)"/><path class="cls-11" d="M.29,126.88l2.37.21L.29,128.9Z" transform="translate(-0.28 0.41)"/><path class="cls-10" d="M1638.26,1.64l-2-2h2Z" transform="translate(-0.28 0.41)"/><path class="cls-2" d="M3563.17,2112.68q-174.16.2-348.32.39c-13.12,0-26.24.19-39.36.29l-2.24-.07c-4.43-2.33-9-4.41-13.28-7q-555.1-341.7-1110.21-683.45c-3-1.83-6.46-2.87-9.71-4.28-.28,3.31-.8,6.61-.8,9.92q-.06,335.82-.09,671.66c0,4.34-.53,8.68-.81,13l-95,.22-2-.53q-.23-118.65-.43-237.3-.09-316.1.35-632.2c0-3.56,5.62-10.23,8.62-10.23q807.69-.69,1615.38-.43c1.34,0,2.69.14,4,.22q-.11,41-.22,82l-1.93,1.67q-310,.17-620.05.34-180.75.12-361.51.34l-5.34.48,3.35,2.8c2.83,1.8,5.62,3.68,8.51,5.39q328,193.43,656,386.8,160.29,94.44,320.83,188.44.12,41.81.23,83.61c-3-1.59-6-3.09-8.86-4.79q-559.26-328.87-1118.57-657.7c-4.19-2.47-9.14-5.13-13.74-5.15-63.95-.23-127.89,0-191.83.1l-6.34-.4,0,2.21,3.62,1.47c2.26,1.46,4.47,3,6.78,4.35q407.78,241.67,815.57,483.32,253.73,150.42,507.31,301.1C3563.18,2110.38,3563.18,2111.53,3563.17,2112.68Z" transform="translate(-0.28 0.41)"/><path class="cls-12" d="M1638.23,2114.93l-2-1.58,2-.53Z" transform="translate(-0.28 0.41)"/><path class="cls-12" d="M1941.41,2112.82l2,.53-2,1.58Z" transform="translate(-0.28 0.41)"/><path class="cls-13" d="M996,799.44l2-3.61,4.36,3.13Z" transform="translate(-0.28 0.41)"/><path class="cls-7" d="M1539.22,702.75l3.83-.13Z" transform="translate(-0.28 0.41)"/><path class="cls-3" d="M2040.06,1.57q557.83,0,1115.69.13c4.53,0,9.05,1.25,13.57,1.92Q2926,153.88,2682.74,304.13,2366.8,499,2050.73,693.72c-3,1.88-6.41,3.25-9.62,4.86-.49-3.82-1.4-7.63-1.4-11.45q-.11-337.24,0-674.49C2039.67,9,2039.92,5.26,2040.06,1.57Z" transform="translate(-0.28 0.41)"/><path class="cls-4" d="M3569.18,215.63c.61,3.54,1.75,7.09,1.75,10.63q.12,280.37,0,560.74c0,3.56-1,7.13-1.62,10.69l-2.18,1.67-.19.51.45.28q-124.59-.23-249.17-.45-368.23-.36-736.47-.64a1.46,1.46,0,0,0-.31-1.61q164.43-97.2,328.88-194.38,325.36-191.76,650.87-383.27C3563.78,218.28,3566.51,217,3569.18,215.63Z" transform="translate(-0.28 0.41)"/><path class="cls-6" d="M2047,795.71l1.37,3.67-5.69-.31Z" transform="translate(-0.28 0.41)"/><path class="cls-14" d="M2581.44,797.45a1.46,1.46,0,0,1,.31,1.61L2580,799Z" transform="translate(-0.28 0.41)"/><path class="cls-15" d="M3569.21,799.83a1.59,1.59,0,0,1-.1,1.87l-1.72-1.55-.45-.28.19-.51Z" transform="translate(-0.28 0.41)"/><path class="cls-3" d="M1543.42,2113c-3,2.7-6.08,7.75-9.12,7.76q-562.72.53-1125.46.29a48.4,48.4,0,0,1-6.72-.91l4-5.13,2.27-1.72c69.16-42.2,138.45-84.17,207.45-126.63q458.05-281.84,916-563.86c3.08-1.9,6.46-3.33,9.7-5,.51,3.81,1.45,7.62,1.45,11.43Q1543.29,1771.14,1543.42,2113Z" transform="translate(-0.28 0.41)"/><path class="cls-5" d="M6.57,2119.27l8.11-5.83q162.56-99.74,325.1-199.48,480.45-295.71,960.9-591.41a39.44,39.44,0,0,1,19.59-5.58c71.68-.25,143.37,0,215,.2,0,1.26,0,2.52,0,3.77q-182.26,112.86-364.57,225.69Q720,1825,269,2103.16c-2.83,1.75-5.49,3.78-8.23,5.69l-6.05,3.86c-14.92,3.32-29.8,9.3-44.76,9.52-67.79,1-135.61.37-203.42.33C6.58,2121.47,6.58,2120.37,6.57,2119.27Z" transform="translate(-0.28 0.41)"/><path class="cls-6" d="M1535.33,1320.94c0-1.25,0-2.51,0-3.77l4.65.16Z" transform="translate(-0.28 0.41)"/><path class="cls-16" d="M254.76,2112.71l6.05-3.86c0,1.27,0,2.55.05,3.83Z" transform="translate(-0.28 0.41)"/><path class="cls-17" d="M1000.37,1319.47l-.33-2.25,3.25.53Z" transform="translate(-0.28 0.41)"/><path class="cls-12" d="M408.4,2113.3l-2.27,1.72a2.77,2.77,0,0,1,0-1.66Z" transform="translate(-0.28 0.41)"/><path class="cls-3" d="M2038.35,2113.13c.28-4.34.81-8.68.81-13q.08-335.83.09-671.66c0-3.31.52-6.61.8-9.92,3.25,1.41,6.73,2.45,9.71,4.28Q2604.89,1764.5,3160,2106.26c4.26,2.62,8.85,4.7,13.29,7l2.25,1.73,4.07,5.13a78,78,0,0,1-8.7,1q-283.1.06-566.19,0-277.05,0-554.08-.34C2046.51,2120.83,2042.43,2115.81,2038.35,2113.13Z" transform="translate(-0.28 0.41)"/><path class="cls-4" d="M3569,1901.11q-160.42-94.2-320.83-188.44-328.07-193.28-656-386.8c-2.89-1.71-5.68-3.59-8.51-5.39l2-3.28q180.75-.18,361.51-.34,310-.19,620.05-.34l2.12.37c.56,3.56,1.6,7.12,1.6,10.68q.12,281,0,562C3570.92,1893.39,3569.65,1897.25,3569,1901.11Z" transform="translate(-0.28 0.41)"/><path class="cls-5" d="M3563.19,2109.23q-253.65-150.56-507.31-301.1-407.74-241.74-815.57-483.32c-2.31-1.37-4.52-2.89-6.78-4.35l2.68-3.28c63.94-.11,127.88-.33,191.83-.1,4.6,0,9.55,2.68,13.74,5.15q559.33,328.76,1118.57,657.7c2.89,1.7,5.9,3.2,8.86,4.79l-.18,127.44Z" transform="translate(-0.28 0.41)"/><path class="cls-16" d="M3563.19,2109.23l5.84,2.93-5.86.52C3563.18,2111.53,3563.18,2110.38,3563.19,2109.23Z" transform="translate(-0.28 0.41)"/><path class="cls-18" d="M6.57,2119.27c0,1.1,0,2.2,0,3.29l-4.54.49Z" transform="translate(-0.28 0.41)"/><path class="cls-15" d="M3569.33,1316.89l-2.12-.37,1.93-1.67Z" transform="translate(-0.28 0.41)"/><path class="cls-17" d="M3569.21,799.83l-2.08-.47,2.18-1.67C3569.28,798.4,3569.25,799.12,3569.21,799.83Z" transform="translate(-0.28 0.41)"/><path class="cls-12" d="M3175.51,2115l-2.25-1.73,2.23.07A2.84,2.84,0,0,1,3175.51,2115Z" transform="translate(-0.28 0.41)"/><path class="cls-8" d="M2236.21,1317.18l-2.68,3.28-3.62-1.47,0-2.21Z" transform="translate(-0.28 0.41)"/><path class="cls-17" d="M2585.65,1317.2l-2,3.28-3.35-2.8Z" transform="translate(-0.28 0.41)"/><path class="cls-19" d="M2229.87,1316.78l0,2.21Z" transform="translate(-0.28 0.41)"/></svg>