<svg id="Layer_1" data-name="Layer 1" xmlns="http://www.w3.org/2000/svg" viewBox="0 0 1000 150"><defs><style>.cls-1{fill:#fff;}</style></defs><title>Artboard 1</title><path class="cls-1" d="M867.78,93.2h54.06V32H899.65a3.88,3.88,0,0,0,.45.14,6.46,6.46,0,0,1,4.43,3.25,6.59,6.59,0,1,1-8.78-2.6,16.37,16.37,0,0,1,2.33-.79H860.64V93.2h6l-.49-.19a3.45,3.45,0,0,1-2.5-3.87,8.42,8.42,0,0,1,.93-2.44c1.3-2.55,2.67-5.07,4-7.6,1.18-2.24,2.35-4.5,3.54-6.74l5.07-9.52L883,52c.42-.79.84-1.57,1.28-2.41a9.28,9.28,0,0,0-5.12,0A10.5,10.5,0,0,0,874,53.12a23.26,23.26,0,0,1-2,2.21,2.81,2.81,0,0,1-4.62-1.17,3.92,3.92,0,0,1,.42-3.46,17.46,17.46,0,0,1,4.95-5.25A19.69,19.69,0,0,1,881,42a16,16,0,0,1,9.39.94c1.8.77,3.5,1.8,5.23,2.73a16.71,16.71,0,0,0,7.61,2.22,10.3,10.3,0,0,0,8.58-3.64A17.46,17.46,0,0,1,914,41.92a3,3,0,0,1,4.89,2.43,4.81,4.81,0,0,1-1,2.79,26.56,26.56,0,0,1-4.14,4.53,18.44,18.44,0,0,1-7.21,3.87,17.67,17.67,0,0,1-8.7.1c-1.07-.24-1.07-.23-1.61.77-1.4,2.56-2.82,5.1-4.21,7.65-.63,1.16-1.24,2.32-1.88,3.54l.19.11c2.73,1.88,5.46,3.77,8.2,5.64A3.92,3.92,0,0,1,900.45,76a4.64,4.64,0,0,1-2,4.56A28.54,28.54,0,0,1,894.23,83c-2.77,1.44-5.58,2.82-8.38,4.2a12.23,12.23,0,0,1-3.34,1.31,3.54,3.54,0,0,1-3.91-4.26,4.65,4.65,0,0,1,2.48-2.92c2.1-1.29,4.19-2.61,6.29-3.93l1.29-.83,0-.19-7.55-3.6-2.61,4.42q-3.62,6.22-7.22,12.46C870.44,91.17,869.57,92.65,867.78,93.2Z"/><path d="M867.78,93.2c1.79-.55,2.66-2,3.52-3.51q3.6-6.24,7.22-12.46l2.61-4.42,7.55,3.6,0,.19-1.29.83c-2.1,1.32-4.19,2.64-6.29,3.93a4.65,4.65,0,0,0-2.48,2.92,3.54,3.54,0,0,0,3.91,4.26,12.23,12.23,0,0,0,3.34-1.31c2.8-1.38,5.61-2.76,8.38-4.2a28.54,28.54,0,0,0,4.24-2.49,4.64,4.64,0,0,0,2-4.56,3.92,3.92,0,0,0-1.93-2.63c-2.74-1.87-5.47-3.76-8.2-5.64l-.19-.11c.64-1.22,1.25-2.38,1.88-3.54,1.39-2.55,2.81-5.09,4.21-7.65.54-1,.54-1,1.61-.77a17.67,17.67,0,0,0,8.7-.1,18.44,18.44,0,0,0,7.21-3.87,26.56,26.56,0,0,0,4.14-4.53,4.81,4.81,0,0,0,1-2.79A3,3,0,0,0,914,41.92a17.46,17.46,0,0,0-2.27,2.28,10.3,10.3,0,0,1-8.58,3.64,16.71,16.71,0,0,1-7.61-2.22c-1.73-.93-3.43-2-5.23-2.73A16,16,0,0,0,881,42a19.69,19.69,0,0,0-8.18,3.5,17.46,17.46,0,0,0-4.95,5.25,3.92,3.92,0,0,0-.42,3.46A2.81,2.81,0,0,0,872,55.33a23.26,23.26,0,0,0,2-2.21,10.5,10.5,0,0,1,5.14-3.54,9.28,9.28,0,0,1,5.12,0c-.44.84-.86,1.62-1.28,2.41l-5.82,10.83-5.07,9.52c-1.19,2.24-2.36,4.5-3.54,6.74-1.34,2.53-2.71,5.05-4,7.6a8.42,8.42,0,0,0-.93,2.44,3.45,3.45,0,0,0,2.5,3.87l.49.19Z"/><path d="M898.08,32a16.37,16.37,0,0,0-2.33.79,6.57,6.57,0,0,0-2.85,8.78,6.59,6.59,0,1,0,11.63-6.18,6.46,6.46,0,0,0-4.43-3.25,3.88,3.88,0,0,1-.45-.14Z"/><path d="M146,93l-9.67-20.51L132.67,93H119l7-31,30.51.17L151.68,68l11.83,25Zm-6.18-35H126l4-15h13.5Zm20.1,0H142.41l12.42-15h17.5Z"/><path d="M196,93l-.51-6.67H181.3L178.48,93h-14.9l13.07-30.83h15l-4.95,11.68h7.91l-.91-11.68h15L211,93ZM178.41,58l6.41-15H207.3l1.1,15Z"/><path d="M267.22,93h-15l3.66-20.91L240.15,93l-8.42-20.91L228.07,93H213.16l5.31-30.83h54.17Zm-48-35,2.64-15h15l6,15Zm54.17,0H249.75l11.31-15h15Z"/><path d="M322.66,62.17a13.82,13.82,0,0,1-4.83,8.27A13.4,13.4,0,0,1,309,73.85H289.81L286.41,93H271.5l5.31-30.83Zm1.5-9.49c0,.34,0,.67-.05,1s-.08.65-.13,1L323.39,58H277.58l2.64-15h34.16a9.56,9.56,0,0,1,7,2.75A9.38,9.38,0,0,1,324.16,52.68Z"/><path d="M369.32,81.35a13.56,13.56,0,0,1-4.91,8.25,13.43,13.43,0,0,1-8.86,3.4H333.06a9.3,9.3,0,0,1-7-2.74,9.61,9.61,0,0,1-2.71-6.9c0-.35,0-.68,0-1s.06-.66.11-1L326.8,62.2h15L339.07,78h15.82l2.74-15.82h15ZM342.55,58h-15l2.64-15h15Zm30.83,0h-15L361,43h15Z"/><path d="M420.81,71.83a8.31,8.31,0,0,1-.06,1c0,.33-.08.67-.13,1l-1.32,7.47a13.57,13.57,0,0,1-4.9,8.27A13.39,13.39,0,0,1,405.53,93h-34L374,78h30.84l.76-4.17H386.46a9.56,9.56,0,0,1-7.07-2.75,9.45,9.45,0,0,1-2.75-6.92c0-.34,0-.68,0-1s.06-.66.11-1H411a9.62,9.62,0,0,1,7.11,2.74A9.39,9.39,0,0,1,420.81,71.83ZM423.37,58H377.56l.58-3.33A14.44,14.44,0,0,1,391.88,43H426Z"/><path d="M463,111.92q-20.77.54-41.57.56,2.67-15.41,5.31-30.81c6,0,9,0,15-.12L439,97.4c10.67-.12,16-.23,26.66-.52C464.63,102.9,464.1,105.91,463,111.92Zm-20.51-34.6c-6,.09-9,.11-15,.14,1.06-6,1.59-9,2.64-15,6,0,9-.07,15-.16Z"/><path d="M482.22,111.33c-6,.21-8.94.31-14.91.48q2.65-15.5,5.31-31c6-.19,9-.29,15-.52Q484.92,95.81,482.22,111.33Zm6.15-35.24c-6,.23-9,.34-15,.53,1.06-6,1.59-9,2.64-15.06,6-.2,9-.31,15-.55C490,67,489.44,70.06,488.37,76.09Z"/><path d="M501.37,110.56c-6,.27-8.94.39-14.9.61l5.31-31c6-.24,9-.37,15-.65Q504.09,95,501.37,110.56Zm6.15-35.29c-6,.28-9,.41-15,.66,1.05-6,1.58-9.06,2.63-15.09,6-.25,9-.39,15-.68Z"/><path d="M533.85,108.91c-3.86-8-5.8-12-9.66-20-1.47,8.28-2.2,12.42-3.67,20.7-6,.31-8.94.46-14.9.74l5.31-31.09q16.73-.86,33.44-1.82c-1.94,2.44-2.91,3.66-4.84,6.11,4.73,9.73,7.1,14.59,11.83,24.3C544.36,108.3,540.86,108.51,533.85,108.91Zm-7.17-34.62c-6,.33-9,.48-15,.78,1.05-6,1.58-9.07,2.64-15.11,6-.3,9-.46,15-.79C528.28,65.22,527.75,68.25,526.68,74.29Zm21.09-1.21c-7,.42-10.5.63-17.5,1l12.41-15.69c7-.42,10.5-.64,17.51-1.08C555.22,63.63,552.74,66.79,547.77,73.08Z"/><path d="M581.75,105.89C577.89,98,576,94,572.09,86c-1.47,8.3-2.2,12.45-3.67,20.75-6,.39-8.94.58-14.9,1l5.31-31.16q16.73-1.09,33.44-2.24l-4.84,6.16c4.73,9.68,7.1,14.51,11.83,24.18C592.26,105.17,588.76,105.41,581.75,105.89Zm-7.17-34.53c-6,.4-9,.6-15,1,1-6.06,1.58-9.09,2.64-15.15,6-.38,9-.58,15-1C576.18,62.27,575.65,65.3,574.58,71.36Zm21.09-1.44c-7,.49-10.5.73-17.5,1.2l12.41-15.83c7-.48,10.5-.73,17.51-1.23Z"/><path d="M646.39,82.15l-26.66,1.91L619,88.29l26.66-1.91c-1.07,6.06-1.61,9.1-2.67,15.17q-20.79,1.49-41.57,3l5.31-31.21,41.68-3C647.6,75.05,647.2,77.42,646.39,82.15Zm2.75-16.05-41.64,3c1-6.06,1.58-9.1,2.64-15.16l41.67-3Z"/><path d="M692.24,79c-10.66.7-16,1.07-26.66,1.81L664.85,85c10.66-.75,16-1.12,26.66-1.82-1.07,6.07-1.61,9.1-2.68,15.16q-20.77,1.38-41.56,2.88L652.58,70q20.83-1.47,41.68-2.86C693.45,71.89,693.05,74.26,692.24,79ZM695,63q-20.82,1.36-41.64,2.85c1-6.07,1.58-9.1,2.64-15.17q20.84-1.46,41.67-2.83C696.59,53.86,696.06,56.89,695,63Z"/><path d="M742.45,74a8.43,8.43,0,0,1-.06,1c0,.33-.08.67-.12,1-.53,3-.8,4.53-1.32,7.54A14.58,14.58,0,0,1,736,92.1a14.32,14.32,0,0,1-8.86,3.9q-17,1-34.06,2.08c1-6.06,1.54-9.09,2.56-15.15q15.42-1,30.84-1.88c.31-1.68.46-2.53.77-4.21-7.68.43-11.52.66-19.19,1.13a9.05,9.05,0,0,1-7.07-2.3,8.88,8.88,0,0,1-2.75-6.75c0-.34,0-.68,0-1s.06-.67.11-1q17.09-1.08,34.17-2a9.11,9.11,0,0,1,7.1,2.37A8.92,8.92,0,0,1,742.45,74ZM745,60q-22.9,1.18-45.81,2.63c.23-1.34.35-2,.59-3.37a14.47,14.47,0,0,1,4.83-8.54,14.32,14.32,0,0,1,8.9-3.95q17.09-1,34.17-1.88C746.62,51,746.08,54,745,60Z"/><path d="M792.44,72a8.31,8.31,0,0,1-.06,1c0,.33-.08.67-.13,1-.52,3-.79,4.51-1.31,7.51A14.23,14.23,0,0,1,786,90a14,14,0,0,1-8.86,3.7q-17,.66-34.06,1.49c1-6,1.54-9.06,2.56-15.11q15.42-.77,30.84-1.33c.3-1.68.46-2.52.77-4.2-7.68.27-11.52.43-19.19.77A9.16,9.16,0,0,1,751,72.85a9,9,0,0,1-2.75-6.79c0-.34,0-.67,0-1s.06-.67.11-1q17.08-.78,34.17-1.41a9.31,9.31,0,0,1,7.1,2.52A9.13,9.13,0,0,1,792.44,72ZM795,58.08q-22.92.69-45.81,1.75l.58-3.36A15.26,15.26,0,0,1,763.51,44.2q17.09-.68,34.16-1.17C796.6,49.05,796.07,52.06,795,58.08Z"/><path d="M823.42,92.56c-.21-2.66-.31-4-.51-6.66-5.67.06-8.51.1-14.18.21-1.12,2.69-1.69,4-2.82,6.72-6,.12-8.94.2-14.9.37Q797.54,77.62,804.08,62c4.47-.1,6.7-.14,11.17-.21l3.85,0c-2,4.69-3,7-5,11.75l7.91-.11c-.36-4.67-.55-7-.91-11.67,6-.07,9-.09,15-.1l2.24,30.84C832.41,92.49,829.41,92.5,823.42,92.56ZM805.84,57.82l6.41-15.1c9-.15,13.49-.19,22.48-.22l1.1,15Q820.85,57.5,805.84,57.82Z"/><path d="M827.05,39.2a.26.26,0,0,1-.17-.07.25.25,0,0,1-.08-.18l-.1-6a.24.24,0,0,1,.24-.25l6-.11a.28.28,0,0,1,.17.07.25.25,0,0,1,.08.18l.1,6a.25.25,0,0,1-.25.25Z"/><path d="M813.05,39.2a.26.26,0,0,1-.17-.07.25.25,0,0,1-.08-.18l-.1-6a.24.24,0,0,1,.24-.25l6-.11a.28.28,0,0,1,.17.07.25.25,0,0,1,.08.18l.1,6a.25.25,0,0,1-.25.25Z"/><path d="M88,51a1,1,0,0,1-.81-.42,1,1,0,0,1-.14-.9l2-6A1,1,0,0,1,90,43h34a1,1,0,0,1,.81.42,1,1,0,0,1,.14.9l-2,6a1,1,0,0,1-1,.68Z"/><path d="M843.11,49a1,1,0,0,1-1-.73l-1.11-4a1,1,0,0,1,.16-.88A1,1,0,0,1,842,43h18.89a1,1,0,0,1,1,.73l1.11,4a1,1,0,0,1-.16.88,1,1,0,0,1-.8.39Z"/><path d="M843.11,60a1,1,0,0,1-1-.73l-1.11-4a1,1,0,0,1,.16-.87,1,1,0,0,1,.8-.4h18.89a1,1,0,0,1,1,.73l1.11,4a1,1,0,0,1-.16.87,1,1,0,0,1-.8.4Z"/><path d="M843.11,71a1,1,0,0,1-1-.73l-1.11-4a1,1,0,0,1,.16-.87,1,1,0,0,1,.8-.4h18.89a1,1,0,0,1,1,.73l1.11,4a1,1,0,0,1-.16.87,1,1,0,0,1-.8.4Z"/><path d="M843.11,82a1,1,0,0,1-1-.73l-1.11-4a1,1,0,0,1,.16-.88A1,1,0,0,1,842,76h18.89a1,1,0,0,1,1,.73l1.11,4a1,1,0,0,1-.16.88,1,1,0,0,1-.8.39Z"/><path d="M85,65a1,1,0,0,1-.81-.42,1,1,0,0,1-.14-.9l2-6A1,1,0,0,1,87,57h34a1,1,0,0,1,.81.42,1,1,0,0,1,.14.9l-2,6a1,1,0,0,1-1,.68Z"/><path d="M82,78a1,1,0,0,1-.81-.42,1,1,0,0,1-.14-.9l2-6A1,1,0,0,1,84,70h34a1,1,0,0,1,.81.42,1,1,0,0,1,.14.9l-2,6a1,1,0,0,1-1,.68Z"/><path d="M79,92a1,1,0,0,1-.81-.42,1,1,0,0,1-.14-.9l2-6A1,1,0,0,1,81,84h34a1,1,0,0,1,.81.42,1,1,0,0,1,.14.9l-2,6a1,1,0,0,1-1,.68Z"/></svg>