<svg id="Layer_1" data-name="Layer 1" xmlns="http://www.w3.org/2000/svg" viewBox="0 0 500 500"><defs><style>.cls-1{fill:#fff;}</style></defs><title>ukkeli</title><path class="cls-1" d="M48.72,500H0V0H305.91a6.13,6.13,0,0,1-1.42.62c-20.44,3.51-34.94,14.43-42.77,33.91-13.93,34.6,11.75,73.36,50.07,72.94,27.48-.3,48.81-19.12,53-45.49,3.27-20.66-7-44-25.44-54-6.43-3.48-13.73-5.38-20.63-8H500V500H58.31c12.43-3.86,19.71-13.22,25.86-23.94,10.45-18.21,21.1-36.31,31.67-54.45q18.87-32.39,37.76-64.76c4.47-7.67,9-15.31,13.62-23.18,21,9.7,42,18.3,62.12,30.3-1.86,1.33-3,2.23-4.22,3q-30.24,18.94-60.51,37.84c-6.74,4.21-12.91,9-16,16.63-4.48,10.94-2.85,21.17,4.32,30.39,6.85,8.81,16.12,12.44,26.87,9.62a119,119,0,0,0,22.92-8.8c32.07-16.08,63.95-32.55,95.93-48.82A52,52,0,0,0,323.54,377c5.23-12.21,1.32-28.22-9.54-35.86-18.8-13.22-37.8-26.15-56.72-39.22L241,290.57c3.11-5.75,5.94-11,8.8-16.25q22.21-40.56,44.53-81c.52-.94,2.57-1.68,3.74-1.5,4.46.7,8.84,1.9,13.27,2.75,35.35,6.71,68.48.55,99.49-17.43a166.47,166.47,0,0,0,45.14-38.76c6.13-7.45,12.1-15.25,16.74-23.67,5-9.15,5.48-19.34-.52-28.52a24,24,0,0,0-36-5.12,175.46,175.46,0,0,0-19.28,19.56c-16,18.49-36.4,27.4-60.54,28.68-25.54,1.36-48.85-6-70.95-18-11.67-6.36-22.92-13.61-35-19.16C209.14,73,167.76,75.21,126.91,93.58A160.25,160.25,0,0,0,67.4,140c-6.22,7.73-11.65,15.78-13.54,25.81s2.42,21.87,10,27c12.18,8.2,25,3.27,33.87-6.33,7.29-7.91,13.74-16.64,21.4-24.13,15-14.7,33.33-22.13,54.49-21.43,6.35.2,12.67,1.55,19.72,2.47-4.24,7.83-7.85,14.47-11.45,21.13-9.42,17.42-18.89,34.81-28.23,52.27-9.72,18.17-19.29,36.41-29,54.61q-18.34,34.5-36.73,69Q73.49,367.63,59.12,395c-10.54,20-21.26,39.88-31.56,60-7.59,14.81-3.75,30.85,9.29,39.59C40.42,497,44.75,498.22,48.72,500Z" transform="translate(0 0)"/><path d="M48.72,500c-4-1.78-8.3-3-11.87-5.43-13-8.74-16.88-24.78-9.29-39.59,10.3-20.11,21-40,31.56-60Q73.54,367.66,88,340.33q18.32-34.51,36.73-69c9.67-18.2,19.24-36.44,29-54.61,9.34-17.46,18.81-34.85,28.23-52.27,3.6-6.66,7.21-13.3,11.45-21.13-7.05-.92-13.37-2.27-19.72-2.47-21.16-.7-39.46,6.73-54.49,21.43-7.66,7.49-14.11,16.22-21.4,24.13C88.87,196,76,201,63.85,192.76c-7.57-5.1-11.9-16.88-10-27S61.18,147.71,67.4,140a160.25,160.25,0,0,1,59.51-46.4C167.76,75.21,209.14,73,250.42,92.09c12,5.55,23.29,12.8,35,19.16,22.1,12,45.41,19.38,70.95,18,24.14-1.28,44.5-10.19,60.54-28.68A175.46,175.46,0,0,1,436.15,81a24,24,0,0,1,36,5.12c6,9.18,5.56,19.37.52,28.52-4.64,8.42-10.61,16.22-16.74,23.67A166.47,166.47,0,0,1,410.8,177.1c-31,18-64.14,24.14-99.49,17.43-4.43-.85-8.81-2.05-13.27-2.75-1.17-.18-3.22.56-3.74,1.5q-22.4,40.44-44.53,81c-2.86,5.24-5.69,10.5-8.8,16.25l16.31,11.3c18.92,13.07,37.92,26,56.72,39.22,10.86,7.64,14.77,23.65,9.54,35.86a52,52,0,0,1-24.92,26.87c-32,16.27-63.86,32.74-95.93,48.82a119,119,0,0,1-22.92,8.8c-10.75,2.82-20-.81-26.87-9.62-7.17-9.22-8.8-19.45-4.32-30.39,3.12-7.63,9.29-12.42,16-16.63q30.27-18.9,60.51-37.84c1.22-.76,2.36-1.66,4.22-3-20.08-12-41.16-20.6-62.12-30.3-4.63,7.87-9.15,15.51-13.62,23.18q-18.9,32.37-37.76,64.76c-10.57,18.14-21.22,36.24-31.67,54.45C78,486.78,70.74,496.14,58.31,500Z" transform="translate(0 0)"/><path d="M318.69,0c6.9,2.62,14.2,4.52,20.63,8,18.4,10,28.71,33.32,25.44,54-4.16,26.37-25.49,45.19-53,45.49-38.32.42-64-38.34-50.07-72.94,7.83-19.48,22.33-30.4,42.77-33.91A6.13,6.13,0,0,0,305.91,0Z" transform="translate(0 0)"/></svg>